<?xml version="1.0" encoding="UTF-8"?>
<svg width="800" height="220" version="1.1" xmlns="http://www.w3.org/2000/svg" xmlns:sodipodi="http://sodipodi.sourceforge.net/DTD/sodipodi-0.dtd">
 <defs>
  <marker id="Arrow1L" overflow="visible" markerHeight="5" markerWidth="8.75" orient="auto-start-reverse" preserveAspectRatio="xMidYMid" refX="4.25" viewBox="0 0 8.75 5">
   <path transform="scale(-.5)" d="m0 0 5-5-17.5 5 17.5 5z" fill="context-stroke" fill-rule="evenodd"/>
  </marker>
 </defs>
 <text x="465" y="160" fill="#000000" font-family="Roboto Condensed" font-size="14px" text-align="center" text-anchor="middle" style="line-height:1.25"><tspan sodipodi:role="line">T1-1-X65+</tspan><tspan sodipodi:role="line">transformer</tspan></text>
 <text x="635" y="160" fill="#000000" font-family="Roboto Condensed" font-size="14px" text-align="center" text-anchor="middle" style="line-height:1.25"><tspan sodipodi:role="line">2×J310</tspan><tspan sodipodi:role="line">amplifier</tspan></text>
 <text x="570" y="160" fill="#000000" font-family="Roboto Condensed" font-size="14px" text-align="center" text-anchor="middle" style="line-height:1.25"><tspan sodipodi:role="line">PLP-30+</tspan><tspan sodipodi:role="line">filter</tspan></text>
 <path d="m530 160v-30h90v-100h-200v100h90v30" fill="none" stroke="#000000" stroke-width="1px"/>
 <path d="m510 170v40" fill="none" stroke="#000000" stroke-width="1px"/>
 <path d="m530 170v20h30" fill="none" stroke="#000000" stroke-width="1px"/>
 <path d="m506 210h8" fill="none" stroke="#000000" stroke-width="1px"/>
 <path d="m509 165h22" fill="none" stroke="#000000" stroke-width="1px"/>
 <path d="m616 210h8" fill="none" stroke="#000000" stroke-width="1px"/>
 <path d="m620 210v-10h10" fill="none" stroke="#000000" stroke-width="1px"/>
 <path d="m546 210h8" fill="none" stroke="#000000" stroke-width="1px"/>
 <path d="m550 210v-10h10" fill="none" stroke="#000000" stroke-width="1px"/>
 <path d="m630 185v20l20-10z" fill="none" stroke="#000000" stroke-width="1px"/>
 <rect x="560" y="185" width="20" height="20" fill="none" stroke="#000000"/>
 <path d="m580 190h50" fill="none" stroke="#000000" stroke-width="1px"/>
 <path d="m650 195h30" fill="none" stroke="#000000" stroke-width="1px"/>
 <text x="520" y="15" fill="#000000" font-family="Roboto Condensed" font-size="14px" text-align="center" text-anchor="middle" style="line-height:1.25"><tspan sodipodi:role="line">5 m</tspan></text>
 <text transform="rotate(90)" x="80" y="-635" fill="#000000" font-family="Roboto Condensed" font-size="14px" text-align="center" text-anchor="middle" style="line-height:1.25"><tspan sodipodi:role="line">2.5 m</tspan></text>
 <path d="m423 20h194" fill="none" marker-end="url(#Arrow1L)" marker-start="url(#Arrow1L)" stroke="#000000" stroke-width="1px"/>
 <path d="m630 33v94" fill="none" marker-end="url(#Arrow1L)" marker-start="url(#Arrow1L)" stroke="#000000" stroke-width="1px"/>
 <text x="165" y="160" fill="#000000" font-family="Roboto Condensed" font-size="14px" text-align="center" text-anchor="middle" style="line-height:1.25"><tspan sodipodi:role="line">T1-1-X65+</tspan><tspan sodipodi:role="line">transformer</tspan></text>
 <text x="335" y="160" fill="#000000" font-family="Roboto Condensed" font-size="14px" text-align="center" text-anchor="middle" style="line-height:1.25"><tspan sodipodi:role="line">2×J310</tspan><tspan sodipodi:role="line">amplifier</tspan></text>
 <text x="270" y="160" fill="#000000" font-family="Roboto Condensed" font-size="14px" text-align="center" text-anchor="middle" style="line-height:1.25"><tspan sodipodi:role="line">PLP-30+</tspan><tspan sodipodi:role="line">filter</tspan></text>
 <text x="220" y="75" fill="#000000" font-family="Roboto Condensed" font-size="14px" text-align="center" text-anchor="middle" style="line-height:1.25"><tspan sodipodi:role="line">1.4 m</tspan></text>
 <path d="m210 160v-30l-50-50 60-60 60 60-50 50v30" fill="none" stroke="#000000" stroke-width="1px"/>
 <path d="m210 170v40" fill="none" stroke="#000000" stroke-width="1px"/>
 <path d="m230 170v20h30" fill="none" stroke="#000000" stroke-width="1px"/>
 <path d="m206 210h8" fill="none" stroke="#000000" stroke-width="1px"/>
 <path d="m164 80h112" fill="none" marker-end="url(#Arrow1L)" marker-start="url(#Arrow1L)" stroke="#000000" stroke-width="1px"/>
 <text transform="rotate(45)" x="212.13" y="-155.56" fill="#000000" font-family="Roboto Condensed" font-size="14px" text-align="center" text-anchor="middle" style="line-height:1.25"><tspan sodipodi:role="line">1 m</tspan></text>
 <path d="m227 17 56 56" fill="none" marker-end="url(#Arrow1L)" marker-start="url(#Arrow1L)" stroke="#000000" stroke-width="1px"/>
 <path d="m209 165h22" fill="none" stroke="#000000" stroke-width="1px"/>
 <path d="m316 210h8" fill="none" stroke="#000000" stroke-width="1px"/>
 <path d="m320 210v-10h10" fill="none" stroke="#000000" stroke-width="1px"/>
 <path d="m246 210h8" fill="none" stroke="#000000" stroke-width="1px"/>
 <path d="m250 210v-10h10" fill="none" stroke="#000000" stroke-width="1px"/>
 <path d="m330 185v20l20-10z" fill="none" stroke="#000000" stroke-width="1px"/>
 <rect x="260" y="185" width="20" height="20" fill="none" stroke="#000000"/>
 <path d="m280 190h50" fill="none" stroke="#000000" stroke-width="1px"/>
 <path d="m350 195h30" fill="none" stroke="#000000" stroke-width="1px"/>
 <path d="m215 160a2.5 2.5 0 0 1-1.25 2.17 2.5 2.5 0 0 1-2.5 0 2.5 2.5 0 0 1-1.25-2.17" fill="none" stroke="#000000"/>
 <path d="m220 160a2.5 2.5 0 0 1-1.25 2.17 2.5 2.5 0 0 1-2.5 0 2.5 2.5 0 0 1-1.25-2.17" fill="none" stroke="#000000"/>
 <path d="m225 160a2.5 2.5 0 0 1-1.25 2.17 2.5 2.5 0 0 1-2.5 0 2.5 2.5 0 0 1-1.25-2.17" fill="none" stroke="#000000"/>
 <path d="m230 160a2.5 2.5 0 0 1-1.25 2.17 2.5 2.5 0 0 1-2.5 0 2.5 2.5 0 0 1-1.25-2.17" fill="none" stroke="#000000"/>
 <path d="m215 170a2.5 2.5 0 0 0-1.25-2.17 2.5 2.5 0 0 0-2.5 0 2.5 2.5 0 0 0-1.25 2.17" fill="none" stroke="#000000"/>
 <path d="m220 170a2.5 2.5 0 0 0-1.25-2.17 2.5 2.5 0 0 0-2.5 0 2.5 2.5 0 0 0-1.25 2.17" fill="none" stroke="#000000"/>
 <path d="m225 170a2.5 2.5 0 0 0-1.25-2.17 2.5 2.5 0 0 0-2.5 0 2.5 2.5 0 0 0-1.25 2.17" fill="none" stroke="#000000"/>
 <path d="m230 170a2.5 2.5 0 0 0-1.25-2.17 2.5 2.5 0 0 0-2.5 0 2.5 2.5 0 0 0-1.25 2.17" fill="none" stroke="#000000"/>
 <path d="m515 160a2.5 2.5 0 0 1-1.25 2.17 2.5 2.5 0 0 1-2.5 0 2.5 2.5 0 0 1-1.25-2.17" fill="none" stroke="#000000"/>
 <path d="m520 160a2.5 2.5 0 0 1-1.25 2.17 2.5 2.5 0 0 1-2.5 0 2.5 2.5 0 0 1-1.25-2.17" fill="none" stroke="#000000"/>
 <path d="m525 160a2.5 2.5 0 0 1-1.25 2.17 2.5 2.5 0 0 1-2.5 0 2.5 2.5 0 0 1-1.25-2.17" fill="none" stroke="#000000"/>
 <path d="m530 160a2.5 2.5 0 0 1-1.25 2.17 2.5 2.5 0 0 1-2.5 0 2.5 2.5 0 0 1-1.25-2.17" fill="none" stroke="#000000"/>
 <path d="m515 170a2.5 2.5 0 0 0-1.25-2.17 2.5 2.5 0 0 0-2.5 0 2.5 2.5 0 0 0-1.25 2.17" fill="none" stroke="#000000"/>
 <path d="m520 170a2.5 2.5 0 0 0-1.25-2.17 2.5 2.5 0 0 0-2.5 0 2.5 2.5 0 0 0-1.25 2.17" fill="none" stroke="#000000"/>
 <path d="m525 170a2.5 2.5 0 0 0-1.25-2.17 2.5 2.5 0 0 0-2.5 0 2.5 2.5 0 0 0-1.25 2.17" fill="none" stroke="#000000"/>
 <path d="m530 170a2.5 2.5 0 0 0-1.25-2.17 2.5 2.5 0 0 0-2.5 0 2.5 2.5 0 0 0-1.25 2.17" fill="none" stroke="#000000"/>
</svg>
