<?xml version="1.0" encoding="UTF-8"?>
<svg width="800" height="240" version="1.1" xmlns="http://www.w3.org/2000/svg" xmlns:s="https://github.com/nturley/netlistsvg" xmlns:sodipodi="http://sodipodi.sourceforge.net/DTD/sodipodi-0.dtd">
 <text x="-410" y="505" fill="#000000" font-family="Roboto Condensed" font-size="14px" style="line-height:1.25"/>
 <path d="m170 200v20h-15l-15-10 15-10z" fill="none" stroke="#000000" stroke-linejoin="round" stroke-width="1px"/>
 <text x="140" y="115" font-family="Roboto Condensed" font-size="14px" style="line-height:1.25"><tspan sodipodi:role="line">in_valid</tspan></text>
 <path d="m140 120v20h15l15-10-15-10z" fill="none" stroke="#000000" stroke-linejoin="round" stroke-width="1px"/>
 <text x="140" y="195" font-family="Roboto Condensed" font-size="14px" style="line-height:1.25"><tspan sodipodi:role="line">in_ready</tspan></text>
 <path d="m320 130h-150" fill="none" stroke="#000000" stroke-width="1px"/>
 <path d="m320 210h-150" fill="none" stroke="#000000" stroke-width="1px"/>
 <path d="m520 130h-60" fill="none" stroke="#000000" stroke-width="1px"/>
 <path d="m140 40v20h15l15-10-15-10z" fill="none" stroke="#000000" stroke-linejoin="round" stroke-width="1px"/>
 <text x="140" y="35" font-family="Roboto Condensed" font-size="14px" style="line-height:1.25"><tspan sodipodi:role="line">in_data</tspan></text>
 <rect x="200" y="10" width="340" height="80" fill="none" stroke="#000000"/>
 <text x="240" y="85" font-family="Roboto Condensed" font-size="14px" text-align="center" text-anchor="middle" style="line-height:1.25"><tspan sodipodi:role="line">CEA2</tspan></text>
 <text x="300" y="85" font-family="Roboto Condensed" font-size="14px" text-align="center" text-anchor="middle" style="line-height:1.25"><tspan sodipodi:role="line">CEB2</tspan></text>
 <path d="m240 210v-120" fill="none" stroke="#000000" stroke-width="1px"/>
 <circle cx="240" cy="210" r="2" fill="#000000" stroke="#000000"/>
 <text x="400" y="85" font-family="Roboto Condensed" font-size="14px" text-align="center" text-anchor="middle" style="line-height:1.25"><tspan sodipodi:role="line">CEM</tspan></text>
 <text x="500" y="85" font-family="Roboto Condensed" font-size="14px" text-align="center" text-anchor="middle" style="line-height:1.25"><tspan sodipodi:role="line">CEP</tspan></text>
 <text x="370" y="55" font-family="Roboto Condensed" font-size="14px" text-align="center" text-anchor="middle" style="line-height:1.25"><tspan sodipodi:role="line">DSP48E1</tspan></text>
 <path d="m200 50h-30" fill="none" stroke="#000000" stroke-width="1px"/>
 <path d="m555 225c-12 1-29-6-35-15 6-9 23-16 35-15-5 8-5 22 0 30z" fill="none" stroke="#000000" stroke-linecap="round" stroke-linejoin="round"/>
 <circle cx="557" cy="200" r="3" fill="none" stroke="#000000" stroke-linejoin="round"/>
 <path d="m580 130v70h-20" fill="none" stroke="#000000" stroke-width="1px"/>
 <path d="m630 130h-70" fill="none" stroke="#000000" stroke-width="1px"/>
 <path d="m630 50h-90" fill="none" stroke="#000000" stroke-width="1px"/>
 <path d="m660 200v20h-15l-15-10 15-10z" fill="none" stroke="#000000" stroke-linejoin="round" stroke-width="1px"/>
 <text x="660" y="115" font-family="Roboto Condensed" font-size="14px" text-align="end" text-anchor="end" style="line-height:1.25"><tspan sodipodi:role="line">out_valid</tspan></text>
 <path d="m630 120v20h15l15-10-15-10z" fill="none" stroke="#000000" stroke-linejoin="round" stroke-width="1px"/>
 <path d="m630 40v20h15l15-10-15-10z" fill="none" stroke="#000000" stroke-linejoin="round" stroke-width="1px"/>
 <text x="660" y="195" font-family="Roboto Condensed" font-size="14px" text-align="end" text-anchor="end" style="line-height:1.25"><tspan sodipodi:role="line">out_ready</tspan></text>
 <text x="660" y="35" font-family="Roboto Condensed" font-size="14px" text-align="end" text-anchor="end" style="line-height:1.25"><tspan sodipodi:role="line">out_data</tspan></text>
 <circle cx="580" cy="130" r="2" fill="#000000" stroke="#000000"/>
 <path d="m630 210h-30v10h-47" fill="none" stroke="#000000" stroke-width="1px"/>
 <rect x="520" y="120" width="40" height="40" fill="none" stroke="#000000" stroke-linejoin="round"/>
 <path d="m545 160-5-5-5 5" fill="none" stroke="#000000" stroke-linejoin="round" stroke-width="1px"/>
 <text x="522" y="135" font-family="Roboto Condensed" font-size="14px" style="line-height:1.25"><tspan sodipodi:role="line">D</tspan></text>
 <text x="558" y="135" font-family="Roboto Condensed" font-size="14px" text-align="end" text-anchor="end" style="line-height:1.25"><tspan sodipodi:role="line">Q</tspan></text>
 <text x="522" y="154" font-family="Roboto Condensed" font-size="14px" style="line-height:1.25"><tspan sodipodi:role="line">en</tspan></text>
 <path d="m500 90v130h-47" fill="none" stroke="#000000" stroke-width="1px"/>
 <circle cx="500" cy="210" r="2" fill="#000000" stroke="#000000"/>
 <path d="m520 210h-20" fill="none" stroke="#000000" stroke-width="1px"/>
 <path d="m420 130h-60" fill="none" stroke="#000000" stroke-width="1px"/>
 <path d="m455 225c-12 1-29-6-35-15 6-9 23-16 35-15-5 8-5 22 0 30z" fill="none" stroke="#000000" stroke-linecap="round" stroke-linejoin="round"/>
 <circle cx="457" cy="200" r="3" fill="none" stroke="#000000" stroke-linejoin="round"/>
 <path d="m480 130v70h-20" fill="none" stroke="#000000" stroke-width="1px"/>
 <circle cx="480" cy="130" r="2" fill="#000000" stroke="#000000"/>
 <rect x="420" y="120" width="40" height="40" fill="none" stroke="#000000" stroke-linejoin="round"/>
 <path d="m445 160-5-5-5 5" fill="none" stroke="#000000" stroke-linejoin="round" stroke-width="1px"/>
 <text x="422" y="135" font-family="Roboto Condensed" font-size="14px" style="line-height:1.25"><tspan sodipodi:role="line">D</tspan></text>
 <text x="458" y="135" font-family="Roboto Condensed" font-size="14px" text-align="end" text-anchor="end" style="line-height:1.25"><tspan sodipodi:role="line">Q</tspan></text>
 <text x="422" y="154" font-family="Roboto Condensed" font-size="14px" style="line-height:1.25"><tspan sodipodi:role="line">en</tspan></text>
 <circle cx="400" cy="210" r="2" fill="#000000" stroke="#000000"/>
 <path d="m420 210h-20" fill="none" stroke="#000000" stroke-width="1px"/>
 <path d="m355 225c-12 1-29-6-35-15 6-9 23-16 35-15-5 8-5 22 0 30z" fill="none" stroke="#000000" stroke-linecap="round" stroke-linejoin="round"/>
 <circle cx="357" cy="200" r="3" fill="none" stroke="#000000" stroke-linejoin="round"/>
 <path d="m380 130v70h-20" fill="none" stroke="#000000" stroke-width="1px"/>
 <circle cx="380" cy="130" r="2" fill="#000000" stroke="#000000"/>
 <rect x="320" y="120" width="40" height="40" fill="none" stroke="#000000" stroke-linejoin="round"/>
 <path d="m345 160-5-5-5 5" fill="none" stroke="#000000" stroke-linejoin="round" stroke-width="1px"/>
 <text x="322" y="135" font-family="Roboto Condensed" font-size="14px" style="line-height:1.25"><tspan sodipodi:role="line">D</tspan></text>
 <text x="358" y="135" font-family="Roboto Condensed" font-size="14px" text-align="end" text-anchor="end" style="line-height:1.25"><tspan sodipodi:role="line">Q</tspan></text>
 <text x="322" y="154" font-family="Roboto Condensed" font-size="14px" style="line-height:1.25"><tspan sodipodi:role="line">en</tspan></text>
 <circle cx="300" cy="210" r="2" fill="#000000" stroke="#000000"/>
 <path d="m300 210v-120" fill="none" stroke="#000000" stroke-width="1px"/>
 <path d="m400 90v130h-47" fill="none" stroke="#000000" stroke-width="1px"/>
 <circle cx="300" cy="150" r="2" fill="#000000" stroke="#000000"/>
 <path d="m320 150h-20" fill="none" stroke="#000000" stroke-width="1px"/>
 <circle cx="400" cy="150" r="2" fill="#000000" stroke="#000000"/>
 <path d="m420 150h-20" fill="none" stroke="#000000" stroke-width="1px"/>
 <circle cx="500" cy="150" r="2" fill="#000000" stroke="#000000"/>
 <path d="m520 150h-20" fill="none" stroke="#000000" stroke-width="1px"/>
</svg>
